<?xml version="1.0" standalone="no"?>
<!DOCTYPE svg PUBLIC "-//W3C//DTD SVG 20010904//EN"
 "http://www.w3.org/TR/2001/REC-SVG-20010904/DTD/svg10.dtd">
<svg version="1.0" xmlns="http://www.w3.org/2000/svg"
 width="400.000000pt" height="400.000000pt" viewBox="0 0 400.000000 400.000000"
 preserveAspectRatio="xMidYMid meet">

<g transform="translate(0.000000,400.000000) scale(0.100000,-0.100000)"
fill="#000000" stroke="none">
<path d="M2355 3599 c-12 -26 -62 -80 -142 -154 -67 -63 -126 -115 -131 -115
-5 0 -39 26 -78 58 -38 32 -79 64 -91 71 l-23 12 0 -106 0 -106 -32 24 c-56
41 -223 116 -304 137 -135 35 -219 25 -472 -57 l-113 -37 98 -17 c111 -18 176
-37 168 -48 -2 -5 -37 -11 -77 -15 -151 -13 -312 -132 -413 -303 -74 -127 -89
-173 -90 -287 0 -59 -5 -101 -11 -103 -5 -2 -36 6 -69 17 -32 11 -60 18 -62
16 -16 -16 91 -136 121 -136 6 0 -9 -10 -33 -22 -58 -28 -81 -78 -80 -173 0
-38 4 -79 8 -90 7 -18 8 -17 14 7 9 34 71 88 103 88 23 0 24 -2 12 -22 -18
-33 -14 -164 6 -221 14 -39 45 -113 64 -149 2 -5 -161 -8 -362 -8 l-366 0 0
-930 0 -930 2000 0 2000 0 0 930 0 930 -450 0 c-247 0 -450 2 -450 5 0 3 15
24 33 47 111 146 143 385 87 638 -11 51 -19 99 -16 107 14 35 79 -9 107 -71
16 -36 19 -38 26 -21 15 36 8 158 -11 195 -10 19 -50 66 -89 103 l-72 68 40
-6 c51 -9 87 -28 137 -73 l40 -36 -17 39 c-10 22 -30 73 -46 114 -33 86 -63
121 -173 198 -114 80 -146 89 -276 75 -58 -7 -117 -15 -132 -18 -25 -6 -28 -3
-28 18 0 76 163 118 310 79 41 -10 76 -18 78 -16 8 7 -138 120 -178 139 -39
18 -65 21 -185 21 l-140 0 -91 -41 -92 -42 5 79 c5 60 2 89 -11 124 -10 25
-21 47 -25 50 -5 2 -16 -14 -26 -36z m69 -922 c15 -23 78 -190 90 -239 6 -25
2 -30 -44 -53 -128 -65 -202 -201 -181 -331 5 -28 9 -38 10 -22 1 17 11 34 30
47 16 12 31 21 33 21 1 0 2 -26 0 -58 -2 -33 1 -77 7 -98 11 -40 68 -124 84
-124 4 0 6 4 2 10 -3 5 7 3 22 -5 108 -56 249 -1 290 114 l16 47 35 -12 c33
-11 37 -10 63 17 16 16 31 40 35 53 8 35 -16 78 -55 98 -19 9 -38 23 -43 30
-7 10 -9 10 -5 -2 2 -9 -9 -23 -26 -33 -16 -10 -30 -17 -31 -15 0 2 -14 18
-31 37 l-30 34 85 -6 c106 -8 147 -21 153 -50 3 -15 5 -12 6 10 0 17 -4 44 -9
60 -10 27 -9 27 6 8 63 -78 101 -239 75 -318 -12 -37 -13 -37 -67 -37 -57 0
-62 4 -39 34 8 11 15 24 15 30 0 5 -13 -10 -29 -35 -38 -59 -75 -92 -141 -125
-45 -23 -68 -28 -130 -28 -96 -1 -168 32 -235 106 -25 28 -43 43 -39 34 6 -14
-13 -16 -186 -16 -105 0 -190 3 -188 8 31 60 50 110 54 140 3 28 0 23 -11 -18
-32 -112 -110 -207 -213 -257 -51 -24 -68 -28 -157 -28 -91 0 -106 3 -160 29
-67 34 -143 104 -174 162 -11 21 -20 35 -21 31 0 -4 7 -21 15 -37 l16 -30 -71
0 c-80 0 -79 -5 -16 81 l33 47 11 -27 c11 -25 11 -25 5 -1 -4 14 -7 43 -8 65
-1 22 -8 68 -15 102 -11 48 -11 66 -2 75 8 8 10 3 8 -23 -2 -19 -2 -27 1 -18
4 16 84 49 118 49 17 0 17 -2 5 -10 -13 -8 -12 -10 3 -10 9 0 17 6 17 14 0 16
69 31 108 24 20 -3 19 -5 -9 -36 -28 -31 -32 -33 -48 -18 -10 9 -24 16 -32 16
-8 -1 -3 -7 10 -14 72 -40 65 -137 -13 -173 l-31 -14 31 5 c29 4 31 2 42 -40
14 -52 70 -117 126 -146 60 -32 156 -30 221 2 28 13 53 24 58 22 14 -4 66 91
78 143 6 28 10 70 7 93 -2 23 -2 42 0 42 2 0 22 -14 45 -32 l40 -32 -6 77
c-15 203 -167 353 -369 365 -49 3 -78 9 -77 16 0 6 12 47 27 91 22 66 32 82
54 89 41 14 79 -8 160 -91 l73 -74 65 7 66 6 28 -37 c16 -21 44 -83 62 -139
32 -100 37 -103 48 -36 6 30 29 83 139 309 35 70 83 92 111 48z m-974 -153
c86 -40 87 -43 30 -70 -27 -13 -72 -44 -100 -70 l-50 -47 -16 39 c-9 22 -19
58 -22 81 -10 92 50 117 158 67z m1252 -62 c23 -15 76 -72 66 -72 -2 0 -21 7
-43 15 -22 8 -59 14 -82 15 -47 0 -53 10 -23 40 25 25 47 25 82 2z m177 -339
c11 -10 24 -32 27 -50 5 -27 1 -37 -24 -63 -38 -38 -66 -38 -103 -1 -36 36
-37 73 -4 106 29 30 74 33 104 8z m-1305 -99 c20 -20 20 -27 -2 -54 -14 -18
-25 -21 -44 -17 -33 9 -42 34 -23 63 18 28 47 31 69 8z m1160 -20 c9 -8 16
-17 16 -19 0 -38 -64 -50 -75 -15 -7 23 10 50 31 50 7 0 20 -7 28 -16z m-285
-388 c10 -11 8 -23 -7 -53 -23 -43 -452 -816 -457 -821 -1 -2 -53 77 -115 175
-150 236 -208 326 -299 461 -42 62 -91 136 -109 163 l-32 49 232 -2 232 -3 88
-145 c49 -80 107 -176 130 -213 36 -60 42 -66 53 -50 26 40 156 283 186 348
47 102 71 124 98 91z m-1308 -6 c169 -32 307 -170 339 -340 5 -29 10 -63 10
-76 l0 -24 -219 0 c-120 0 -233 -3 -250 -6 l-31 -6 0 -147 c0 -189 3 -195 104
-189 104 5 172 40 262 133 71 75 97 89 108 59 16 -42 -88 -148 -197 -199 -86
-41 -177 -56 -267 -44 -225 31 -390 256 -352 479 31 182 145 306 325 355 64
17 99 18 168 5z m1866 -35 c152 -71 226 -178 247 -352 l7 -53 -219 0 c-121 0
-234 -3 -251 -6 l-31 -6 0 -154 c0 -182 1 -184 91 -184 106 0 220 62 295 160
46 60 84 69 84 20 0 -57 -105 -149 -223 -197 -168 -68 -337 -40 -460 76 -183
173 -181 453 2 625 126 117 303 145 458 71z"/>
<path d="M1333 2175 c-26 -19 -46 -75 -38 -108 4 -14 20 -37 36 -53 16 -15 29
-33 29 -38 0 -27 51 -117 85 -151 43 -42 127 -85 165 -84 19 1 16 3 -13 10
-106 25 -197 112 -221 212 -4 19 -2 27 6 27 7 0 -3 8 -22 18 -67 33 -76 108
-18 157 32 27 26 34 -9 10z"/>
<path d="M2943 2065 c0 -27 2 -38 4 -22 2 15 2 37 0 50 -2 12 -4 0 -4 -28z"/>
<path d="M2932 1990 c0 -14 2 -19 5 -12 2 6 2 18 0 25 -3 6 -5 1 -5 -13z"/>
<path d="M2301 1985 c0 -11 6 -31 14 -45 18 -32 18 -25 0 25 -8 22 -14 31 -14
20z"/>
<path d="M2836 1927 c-8 -33 -69 -103 -108 -123 -15 -8 -54 -21 -85 -28 -36
-9 -48 -15 -31 -15 45 -2 133 37 172 75 40 38 69 89 63 107 -2 7 -7 -1 -11
-16z"/>
<path d="M1831 1806 c-18 -13 -46 -30 -62 -36 -16 -7 -28 -15 -25 -17 6 -7
100 43 115 61 19 22 10 20 -28 -8z"/>
<path d="M2466 1810 c17 -17 114 -51 114 -40 0 6 -8 10 -17 10 -10 0 -38 10
-63 21 -25 11 -40 15 -34 9z"/>
<path d="M1693 1743 c9 -2 23 -2 30 0 6 3 -1 5 -18 5 -16 0 -22 -2 -12 -5z"/>
<path d="M1023 1558 c-30 -15 -35 -46 -31 -208 l3 -135 90 0 90 0 3 151 c2
134 0 154 -16 174 -21 26 -102 37 -139 18z"/>
<path d="M2800 1564 c-36 -14 -40 -36 -40 -196 l0 -159 93 3 92 3 0 157 c0
134 -3 160 -17 174 -17 17 -100 29 -128 18z"/>
</g>
</svg>
