<?xml version="1.0" standalone="no"?>
<!DOCTYPE svg PUBLIC "-//W3C//DTD SVG 20010904//EN"
 "http://www.w3.org/TR/2001/REC-SVG-20010904/DTD/svg10.dtd">
<svg version="1.0" xmlns="http://www.w3.org/2000/svg"
 width="192.000000pt" height="192.000000pt" viewBox="0 0 192.000000 192.000000"
 preserveAspectRatio="xMidYMid meet">
<metadata>
Created by potrace 1.16, written by Peter Selinger 2001-2019
</metadata>
<g transform="translate(0.000000,192.000000) scale(0.100000,-0.100000)"
fill="#000000" stroke="none">
<path d="M1062 1602 l-62 -64 -43 32 -42 31 -3 -41 c-2 -22 -5 -40 -8 -40 -2
0 -33 14 -67 32 -48 24 -76 31 -122 32 -60 1 -188 -31 -180 -44 3 -4 24 -11
47 -15 l43 -7 -51 -17 c-60 -20 -105 -51 -139 -95 -39 -51 -67 -123 -63 -164
3 -37 2 -37 -32 -34 l-35 3 27 -27 c26 -27 26 -27 7 -43 -12 -10 -23 -34 -26
-59 -6 -44 4 -54 27 -27 23 28 35 17 32 -28 -2 -25 3 -60 12 -81 9 -21 16 -40
16 -42 0 -2 -72 -4 -160 -4 l-160 0 0 -410 0 -410 880 0 880 0 0 410 0 410
-201 0 -200 0 19 28 c42 60 58 161 39 250 -15 69 -6 90 24 54 22 -28 29 -28
29 2 0 38 -16 71 -47 100 -24 23 -25 26 -9 26 11 0 30 -10 43 -22 l23 -21 -16
46 c-18 54 -61 99 -120 128 -41 19 -73 20 -136 2 -26 -6 -23 24 3 37 11 7 47
10 79 8 57 -3 58 -2 42 16 -29 32 -69 46 -130 46 -33 0 -76 -7 -95 -15 -20 -8
-39 -15 -42 -15 -3 0 -5 20 -5 44 0 25 -3 46 -7 48 -5 2 -36 -25 -71 -60z
m105 -400 l22 -62 -29 -15 c-35 -18 -65 -60 -73 -103 -6 -30 -5 -33 13 -27 18
6 20 2 20 -32 0 -49 21 -79 60 -87 38 -7 94 15 110 43 12 23 4 87 -13 109 -9
11 0 13 49 9 l59 -4 11 -44 c15 -63 8 -89 -26 -89 -15 0 -33 -7 -40 -14 -6 -8
-31 -23 -56 -32 -41 -16 -47 -16 -88 0 -25 9 -50 24 -56 32 -9 10 -35 14 -97
14 -80 0 -86 -2 -125 -32 -36 -29 -47 -33 -103 -33 -56 0 -67 4 -103 33 -23
17 -52 32 -66 32 -30 0 -31 3 -10 35 10 16 15 39 12 65 -3 34 -1 40 17 42 40
3 44 3 51 11 10 10 44 9 44 -1 0 -5 -3 -12 -7 -16 -8 -7 -13 -37 -14 -84 -1
-29 26 -61 67 -78 66 -28 144 23 144 93 0 31 2 34 21 28 20 -7 21 -5 14 31
-15 82 -64 131 -144 143 -42 6 -46 9 -42 31 9 69 41 77 91 25 25 -26 43 -35
66 -35 36 0 49 -12 67 -65 l13 -38 33 69 c63 135 74 140 108 46z m-103 -593
c-53 -96 -100 -180 -104 -187 -4 -9 -34 30 -85 110 -43 68 -98 151 -122 186
l-44 62 103 0 103 0 54 -91 c62 -103 58 -104 118 11 52 101 54 103 65 92 5 -5
-28 -75 -88 -183z m-413 152 c46 -28 71 -67 84 -128 l6 -32 -108 -3 -108 -3
-3 -72 c-3 -65 -1 -72 18 -78 32 -10 89 14 136 57 27 25 45 35 49 28 12 -19
-68 -85 -119 -100 -58 -16 -108 -8 -157 25 -113 74 -102 250 19 315 57 30 128
26 183 -9z m757 10 c47 -24 70 -50 88 -98 26 -73 25 -73 -80 -73 -52 0 -101
-3 -110 -6 -20 -8 -23 -123 -4 -142 26 -26 88 -4 149 55 27 26 39 31 45 22 11
-19 -67 -84 -121 -99 -154 -43 -283 110 -216 255 10 22 27 47 37 56 60 51 146
64 212 30z"/>
</g>
</svg>
